# xmcd
#
# Track frame offsets:
#   150
#   21379
#   36642
#   65731
#   89677
#   112222
#   139746
#   157900
#   174407
#   196455
#   224149
#   243305
#   262591
#
# Disc length: 3550 seconds
#
# Revision: 0
# Processed by: cddbd v1.5.1PL0 Copyright (c) Steve Scherf et al.
# Submitted via: uFREEDB 1.6.0
#
DISCID=c70ddc0d
DTITLE=Blue Stew - Stumbling Blocks and Stepping Stones
DYEAR=2000
DGENRE=Blues
TTITLE0=Grateful (for Linda)
TTITLE1=Nobody's There
TTITLE2=My Baby's Cookin'
TTITLE3=She Makes Me Feel That Way
TTITLE4=To Get Your Attention (For Julie)
TTITLE5=Bringing Home The Blues
TTITLE6=Walkin' Shoes
TTITLE7=Better Off Alone
TTITLE8=Steppin' On Cracks
TTITLE9=Missing You
TTITLE10=Child Of The Street (For Becky)
TTITLE11=Why You Treat Me That Way
TTITLE12=Whoops
EXTD=
EXTT0=
EXTT1=
EXTT2=
EXTT3=
EXTT4=
EXTT5=
EXTT6=
EXTT7=
EXTT8=
EXTT9=
EXTT10=
EXTT11=
EXTT12=
PLAYORDER=
